<svg xmlns="http://www.w3.org/2000/svg" width="51" height="51" viewBox="0 0 51 51" fill="none">
  <g clip-path="url(#clip0_20_266)">
    <path d="M25.5 0C32.263 0 38.749 2.6866 43.5312 7.46878C48.3134 12.251 51 18.737 51 25.5C51 32.263 48.3134 38.749 43.5312 43.5312C38.749 48.3134 32.263 51 25.5 51C18.737 51 12.251 48.3134 7.46878 43.5312C2.6866 38.749 0 32.263 0 25.5C0 18.737 2.6866 12.251 7.46878 7.46878C12.251 2.6866 18.737 0 25.5 0ZM14.3438 23.9062C13.9211 23.9062 13.5157 24.0742 13.2168 24.373C12.9179 24.6719 12.75 25.0773 12.75 25.5C12.75 25.9227 12.9179 26.3281 13.2168 26.627C13.5157 26.9258 13.9211 27.0938 14.3438 27.0938H32.8089L25.9654 33.9341C25.8172 34.0823 25.6997 34.2582 25.6195 34.4518C25.5393 34.6454 25.498 34.8529 25.498 35.0625C25.498 35.2721 25.5393 35.4796 25.6195 35.6732C25.6997 35.8668 25.8172 36.0427 25.9654 36.1909C26.1136 36.3391 26.2895 36.4566 26.4831 36.5368C26.6767 36.617 26.8842 36.6583 27.0938 36.6583C27.3033 36.6583 27.5108 36.617 27.7044 36.5368C27.898 36.4566 28.0739 36.3391 28.2221 36.1909L37.7846 26.6284C37.933 26.4803 38.0508 26.3045 38.1311 26.1108C38.2115 25.9172 38.2528 25.7096 38.2528 25.5C38.2528 25.2904 38.2115 25.0828 38.1311 24.8892C38.0508 24.6955 37.933 24.5197 37.7846 24.3716L28.2221 14.8091C28.0739 14.6609 27.898 14.5434 27.7044 14.4632C27.5108 14.383 27.3033 14.3417 27.0938 14.3417C26.8842 14.3417 26.6767 14.383 26.4831 14.4632C26.2895 14.5434 26.1136 14.6609 25.9654 14.8091C25.8172 14.9573 25.6997 15.1332 25.6195 15.3268C25.5393 15.5204 25.498 15.7279 25.498 15.9375C25.498 16.1471 25.5393 16.3546 25.6195 16.5482C25.6997 16.7418 25.8172 16.9177 25.9654 17.0659L32.8089 23.9062H14.3438Z" fill="#343434"/>
  </g>
  <defs>
    <clipPath id="clip0_20_266">
      <rect width="51" height="51" fill="white"/>
    </clipPath>
  </defs>
</svg>