<?xml version="1.0" standalone="no"?>
<!DOCTYPE svg PUBLIC "-//W3C//DTD SVG 20010904//EN"
 "http://www.w3.org/TR/2001/REC-SVG-20010904/DTD/svg10.dtd">
<svg version="1.0" xmlns="http://www.w3.org/2000/svg"
 width="1488.000000pt" height="1488.000000pt" viewBox="0 0 1488.000000 1488.000000"
 preserveAspectRatio="xMidYMid meet">

<g transform="translate(0.000000,1488.000000) scale(0.100000,-0.100000)"
fill="#000000" stroke="none">
<path d="M3140 12181 c-179 -59 -299 -274 -364 -651 -106 -613 -73 -1767 90
-3160 l37 -315 -45 -65 c-121 -173 -255 -424 -332 -621 -120 -307 -173 -568
-192 -936 -5 -101 -9 -133 -20 -133 -7 0 -378 16 -825 35 -447 20 -813 34
-815 33 -6 -7 -37 -1029 -30 -1035 3 -4 440 -25 971 -48 530 -22 966 -43 968
-45 2 -3 25 -44 51 -91 l46 -86 -958 -323 c-526 -178 -961 -327 -966 -332 -6
-4 53 -200 147 -490 87 -265 159 -483 161 -486 2 -2 516 170 1142 382 l1137
385 96 -89 c753 -695 1720 -1146 2846 -1325 350 -56 670 -83 1080 -91 1138
-24 2160 176 3020 590 447 216 811 461 1227 825 l46 41 1072 -361 c589 -198
1073 -359 1075 -357 2 1 75 217 163 478 88 261 163 482 166 490 5 12 -166 73
-881 314 -489 164 -892 302 -896 306 -4 4 10 37 33 73 22 37 47 85 56 107 9
22 17 40 18 41 0 1 398 20 883 43 486 23 886 45 889 49 6 6 -35 1027 -41 1035
-1 1 -329 -13 -728 -33 -399 -19 -733 -35 -741 -35 -14 0 -16 17 -16 114 0
573 -214 1169 -610 1701 l-30 40 20 160 c135 1097 191 2245 140 2860 -53 631
-190 958 -422 1007 -119 25 -295 -19 -523 -131 -231 -114 -466 -271 -770 -514
-390 -312 -670 -570 -1256 -1156 l-446 -446 -44 7 c-719 126 -1491 141 -2214
43 -99 -14 -228 -33 -288 -44 l-108 -20 -137 142 c-716 742 -1260 1244 -1727
1597 -444 336 -794 512 -1044 525 -48 3 -97 1 -111 -4z m2175 -4798 c235 -53
441 -241 520 -474 37 -111 46 -287 20 -406 -56 -260 -265 -479 -525 -549 -82
-22 -290 -25 -370 -5 -252 62 -469 272 -535 517 -26 94 -31 255 -11 354 37
185 156 358 321 469 158 106 374 141 580 94z m4773 1 c86 -18 205 -76 284
-138 207 -164 310 -439 264 -704 -30 -171 -96 -293 -226 -415 -54 -51 -104
-86 -161 -115 -121 -61 -191 -76 -339 -76 -149 0 -218 15 -340 76 -68 34 -103
60 -175 133 -136 136 -192 248 -216 433 -39 306 115 602 390 746 153 80 325
100 519 60z"/>
</g>
</svg>
